<svg xmlns="http://www.w3.org/2000/svg" viewBox="0 0 850 300" width="100%" height="300">
  <defs>
    <!-- Glow Filter -->
    <filter id="glow" x="-20%" y="-20%" width="140%" height="140%">
      <feGaussianBlur stdDeviation="3" result="blur" />
      <feMerge>
        <feMergeNode in="blur" />
        <feMergeNode in="SourceGraphic" />
      </feMerge>
    </filter>
    
    <!-- Theme Gradients -->
    <linearGradient id="theme-grad" x1="0%" y1="0%" x2="100%" y2="100%">
      <stop offset="0%" stop-color="#10B981" />
      <stop offset="100%" stop-color="#059669" />
    </linearGradient>
  </defs>

  <style>
    .card-border {
      fill: #0c0b16;
      stroke: #221e3f;
      stroke-width: 1.5;
      rx: 16;
      transition: all 0.3s ease;
    }
    .card-border:hover {
      stroke: #10B981;
    }
    .floating-coin {
      animation: coin-float 2.8s infinite ease-in-out;
    }
    @keyframes coin-float {
      0%, 100% { transform: translateY(0px); }
      50% { transform: translateY(-8px); }
    }
    .tech-pill {
      display: inline-flex;
      align-items: center;
      justify-content: center;
      height: 20px;
      padding: 0 8px;
      border-radius: 4px;
      font-size: 10px;
      font-weight: 600;
      color: #c9d1d9;
      background-color: #141226;
      border: 1px solid #221e3f;
      margin-right: 5px;
      margin-bottom: 5px;
    }
    .badge {
      display: inline-flex;
      align-items: center;
      height: 18px;
      padding: 0 6px;
      border-radius: 3px;
      font-size: 9px;
      font-weight: bold;
      color: #34d399;
      background-color: rgba(16, 185, 129, 0.1);
      border: 1px solid rgba(16, 185, 129, 0.2);
      margin-right: 6px;
    }
  </style>

  <!-- Card Background -->
  <rect width="848" height="298" x="1" y="1" class="card-border" />

  <!-- Vertical Divider -->
  <line x1="520" y1="20" x2="520" y2="280" stroke="#221e3f" stroke-width="1.5" stroke-dasharray="4 4" />

  <!-- Left Column: Details (foreignObject) -->
  <foreignObject x="25" y="25" width="470" height="250">
    <div xmlns="http://www.w3.org/1999/xhtml" style="
      font-family: -apple-system, BlinkMacSystemFont, 'Segoe UI', Helvetica, Arial, sans-serif;
      color: #c9d1d9;
      user-select: none;
    ">
      <h3 style="color: #ffffff; font-size: 20px; margin: 0 0 10px 0; font-weight: 800; display: flex; align-items: center; gap: 8px;">
        📋 Mess Manager
      </h3>
      
      <div style="margin-bottom: 18px; display: flex; flex-wrap: wrap; gap: 4px;">
        <span class="badge">Hostel Tech</span>
        <span class="badge">Express &amp; Node</span>
        <span class="badge">MongoDB</span>
        <span class="badge">Automated Billing</span>
      </div>

      <ul style="margin: 0; padding-left: 20px; font-size: 13px; line-height: 22px; color: #8b949e; list-style-type: square;">
        <li style="margin-bottom: 8px;">Streamlined hostel and mess tracking system for managing daily meals, deposits, refunds, and active members.</li>
        <li style="margin-bottom: 8px;">Automated cost calculation algorithm computes cost-per-meal and individual balances in real time.</li>
        <li>Responsive dashboard for administrators to approve deposits, track inventory expenses, and view member logs.</li>
      </ul>
    </div>
  </foreignObject>

  <!-- Right Column: Animated 3D Graphic (scaled and translated) -->
  <g transform="translate(585, -20) scale(2.2)">
    <!-- 3D Stack of Gold Coins -->
    <!-- Shadow for stack -->
    <ellipse cx="28" cy="86" rx="15" ry="4" fill="rgba(0,0,0,0.3)" />

    <!-- Coin 1 (Bottom) -->
    <path d="M 14,80 L 14,84 A 14,4 0 0,0 42,84 L 42,80 Z" fill="#D35400" />
    <ellipse cx="28" cy="80" rx="14" ry="4" fill="#F5B041" />

    <!-- Coin 2 (Middle) -->
    <path d="M 14,73 L 14,77 A 14,4 0 0,0 42,77 L 42,73 Z" fill="#D35400" />
    <ellipse cx="28" cy="73" rx="14" ry="4" fill="#FBBF24" />

    <!-- Coin 3 (Top) -->
    <path d="M 14,66 L 14,70 A 14,4 0 0,0 42,70 L 42,66 Z" fill="#D35400" />
    <ellipse cx="28" cy="66" rx="14" ry="4" fill="#FFE082" />

    <!-- 3D Glass Vault Safe -->
    <!-- Vault Shadow -->
    <ellipse cx="56" cy="83" rx="14" ry="4.5" fill="rgba(0,0,0,0.25)" />

    <!-- Vault Left Face -->
    <polygon points="42,56 42,78 56,84 56,62" fill="rgba(16, 185, 129, 0.05)" stroke="#10B981" stroke-width="1.2" stroke-linejoin="round" />
    <!-- Vault Right Face -->
    <polygon points="56,62 56,84 70,78 70,56" fill="rgba(16, 185, 129, 0.1)" stroke="#10B981" stroke-width="1.2" stroke-linejoin="round" />
    <!-- Vault Top Face -->
    <polygon points="56,48 70,56 56,62 42,56" fill="rgba(16, 185, 129, 0.08)" stroke="#10B981" stroke-width="1.2" stroke-linejoin="round" />
    
    <!-- Vault Combination Lock Dial (Isometric Ellipse) -->
    <ellipse cx="49" cy="70" rx="3.5" ry="5.5" fill="none" stroke="#10B981" stroke-width="1" transform="rotate(-15 49 70)" />
    <line x1="49" y1="67" x2="49" y2="73" stroke="#10B981" stroke-width="0.8" />

    <!-- Floating 3D Coin (Animated) -->
    <g class="floating-coin" style="transform-origin: 50px 32px;">
      <!-- Coin side -->
      <path d="M 42,28 L 42,32 A 8,2.5 0 0,0 58,32 L 58,28 Z" fill="#D35400" />
      <!-- Coin top -->
      <ellipse cx="50" cy="28" rx="8" ry="2.5" fill="#FFE082" stroke="#F5B041" stroke-width="0.5" filter="url(#glow)" />
    </g>
  </g>

  <!-- Right Column Bottom: Tech Stack Pills -->
  <foreignObject x="545" y="210" width="280" height="75">
    <div xmlns="http://www.w3.org/1999/xhtml" style="
      font-family: -apple-system, BlinkMacSystemFont, 'Segoe UI', sans-serif;
      display: flex;
      flex-wrap: wrap;
      align-items: center;
    ">
      <span class="tech-pill">Node.js</span>
      <span class="tech-pill">Express</span>
      <span class="tech-pill">MongoDB</span>
      <span class="tech-pill">EJS</span>
      <span class="tech-pill">HTML5</span>
      <span class="tech-pill">CSS3</span>
      <span class="tech-pill">Bootstrap</span>
    </div>
  </foreignObject>
  <!-- Floating Petals & Coding Particles Overlay (Aesthetic Theme) -->
  <g id="readme-theme-overlay" opacity="0.8">
    <!-- Cherry Blossom Petal 1 (Drifts diagonally, rotates) -->
    <path d="M 0,0 C -3,-5 -8,-3 -7,2 C -5,7 0,10 0,10 C 0,10 5,7 7,2 C 8,-3 3,-5 0,0 Z" fill="#FFB7C5" opacity="0.2">
      <animateTransform attributeName="transform" type="translate" values="-20,40; 870,200" dur="18s" repeatCount="indefinite" />
      <animateTransform attributeName="transform" type="rotate" values="0; 360" dur="12s" repeatCount="indefinite" additive="sum" />
    </path>
    <!-- Cherry Blossom Petal 2 -->
    <path d="M 0,0 C -3,-5 -8,-3 -7,2 C -5,7 0,10 0,10 C 0,10 5,7 7,2 C 8,-3 3,-5 0,0 Z" fill="#FFB7C5" opacity="0.18">
      <animateTransform attributeName="transform" type="translate" values="120,-20; 880,110" dur="22s" repeatCount="indefinite" />
      <animateTransform attributeName="transform" type="rotate" values="45; 405" dur="15s" repeatCount="indefinite" additive="sum" />
    </path>
    <!-- Cherry Blossom Petal 3 -->
    <path d="M 0,0 C -3,-5 -8,-3 -7,2 C -5,7 0,10 0,10 C 0,10 5,7 7,2 C 8,-3 3,-5 0,0 Z" fill="#FF8DA1" opacity="0.15">
      <animateTransform attributeName="transform" type="translate" values="-50,140; 830,280" dur="20s" repeatCount="indefinite" />
      <animateTransform attributeName="transform" type="rotate" values="90; 450" dur="18s" repeatCount="indefinite" additive="sum" />
    </path>
    <!-- Cherry Blossom Petal 4 -->
    <path d="M 0,0 C -3,-5 -8,-3 -7,2 C -5,7 0,10 0,10 C 0,10 5,7 7,2 C 8,-3 3,-5 0,0 Z" fill="#FFB7C5" opacity="0.22">
      <animateTransform attributeName="transform" type="translate" values="280,-30; 780,260" dur="25s" repeatCount="indefinite" />
      <animateTransform attributeName="transform" type="rotate" values="10; 730" dur="24s" repeatCount="indefinite" additive="sum" />
    </path>

    <!-- Coding Particles (HTML, JS braces, sparks) -->
    <text x="0" y="0" fill="#00F2FE" font-family="monospace" font-size="11" font-weight="bold" opacity="0.14">
      &lt;/&gt;
      <animateTransform attributeName="transform" type="translate" values="40,250; 810,30" dur="26s" repeatCount="indefinite" />
      <animateTransform attributeName="transform" type="rotate" values="0; -360" dur="16s" repeatCount="indefinite" additive="sum" />
    </text>
    <text x="0" y="0" fill="#8B5CF6" font-family="monospace" font-size="13" font-weight="bold" opacity="0.12">
      {{
      <animateTransform attributeName="transform" type="translate" values="180,290; 790,60" dur="28s" repeatCount="indefinite" />
      <animateTransform attributeName="transform" type="rotate" values="0; 360" dur="20s" repeatCount="indefinite" additive="sum" />
    </text>
    <text x="0" y="0" fill="#3B82F6" font-family="monospace" font-size="12" font-weight="bold" opacity="0.15">
      ( )
      <animateTransform attributeName="transform" type="translate" values="10,100; 840,10" dur="23s" repeatCount="indefinite" />
      <animateTransform attributeName="transform" type="rotate" values="30; 390" dur="14s" repeatCount="indefinite" additive="sum" />
    </text>
    
    <!-- Coding Sparkle Dots -->
    <circle cx="0" cy="0" r="1.5" fill="#00F2FE" opacity="0.25">
      <animateTransform attributeName="transform" type="translate" values="-30,60; 860,160" dur="19s" repeatCount="indefinite" />
    </circle>
    <circle cx="0" cy="0" r="1.2" fill="#8B5CF6" opacity="0.3">
      <animateTransform attributeName="transform" type="translate" values="140,-10; 810,220" dur="24s" repeatCount="indefinite" />
    </circle>
  </g>
</svg>
