<svg xmlns="http://www.w3.org/2000/svg" viewBox="0 0 850 460" width="100%" height="460">
  <defs>
    <!-- Glow Filters -->
    <filter id="glow-cyan" x="-40%" y="-40%" width="180%" height="180%">
      <feGaussianBlur stdDeviation="3" result="blur" />
      <feFlood flood-color="#00F2FE" flood-opacity="0.3" result="color" />
      <feComposite in="color" in2="blur" operator="in" result="shadow" />
      <feMerge>
        <feMergeNode in="shadow" />
        <feMergeNode in="SourceGraphic" />
      </feMerge>
    </filter>
  </defs>

  <style>
    .table-bg {
      fill: #0d1117;
    }
    .grid-line {
      stroke: #30363d;
      stroke-width: 1;
    }
    .header-text {
      font-family: -apple-system, BlinkMacSystemFont, "Segoe UI", Helvetica, Arial, sans-serif;
      font-weight: 600;
      font-size: 12px;
      fill: #8b949e;
      letter-spacing: 0.5px;
    }
    .category-text {
      font-family: -apple-system, BlinkMacSystemFont, "Segoe UI", Helvetica, Arial, sans-serif;
      font-weight: 600;
      font-size: 11px;
      fill: #c9d1d9;
    }
    .pill-text {
      font-family: -apple-system, BlinkMacSystemFont, "Segoe UI", Helvetica, Arial, sans-serif;
      font-weight: 700;
      font-size: 9px;
      fill: #ffffff;
      letter-spacing: 0.5px;
    }
    .logo-wrapper {
      transition: transform 0.2s cubic-bezier(0.4, 0, 0.2, 1), filter 0.2s ease;
      transform-origin: 20px 20px;
      cursor: pointer;
    }
    .logo-wrapper:hover {
      transform: scale(1.18) translateY(-2px);
      filter: drop-shadow(0 3px 8px rgba(51, 204, 255, 0.35));
    }
    .tech-pill {
      cursor: pointer;
      transition: transform 0.2s cubic-bezier(0.4, 0, 0.2, 1), filter 0.2s ease;
    }
    .tech-pill:hover {
      transform: scale(1.08) translateY(-1px);
      filter: drop-shadow(0 2px 6px rgba(255, 255, 255, 0.25));
    }
  </style>

  <!-- Table Body Background -->
  <rect width="850" height="460" fill="#0d1117" rx="8" />

  <!-- Header Background (Rounded top corners) -->
  <path d="M8,0.5 h834 a8,8 0 0 1 8,8 v26.5 h-850 v-26.5 a8,8 0 0 1 8,-8 z" fill="#161b22" />

  <!-- Header Texts -->
  <text x="100" y="22" text-anchor="middle" class="header-text">Category</text>
  <text x="525" y="22" text-anchor="middle" class="header-text">Technologies</text>

  <!-- Vertical Divider Line -->
  <line x1="200" y1="0" x2="200" y2="459" class="grid-line" />

  <!-- Horizontal Grid Lines -->
  <line x1="0" y1="35" x2="850" y2="35" class="grid-line" />
  <line x1="0" y1="103" x2="850" y2="103" class="grid-line" />
  <line x1="0" y1="171" x2="850" y2="171" class="grid-line" />
  <line x1="0" y1="267" x2="850" y2="267" class="grid-line" />
  <line x1="0" y1="363" x2="850" y2="363" class="grid-line" />

  <!-- Outer Rounded Border Outline -->
  <rect x="0.5" y="0.5" width="849" height="458" fill="none" stroke="#30363d" stroke-width="1" rx="8" />

  <!-- ===================== ROW 1: LANGUAGES & CORE TOOLS ===================== -->
  <text x="100" y="64" text-anchor="middle" class="category-text">Languages &amp;</text>
  <text x="100" y="78" text-anchor="middle" class="category-text">Core Tools</text>

  <!-- Python -->
  <g transform="translate(220, 49)">
    <g class="logo-wrapper">
      <title>Python</title>
      <rect width="40" height="40" rx="8" fill="#161b22" />
      <path d="M20.1,6C15,6,11.2,9.6,11.2,14.7v3.2h9.1v1.4h-6.4c-4.9,0-8.5,3.6-8.5,8.6c0,5.1,3.7,8.6,8.8,8.6h3.2v-4.4c0-4.5,3.6-8.1,8.1-8.1h6.6v-3.2c0-5.1-3.7-8.7-8.8-8.7h-3.2v2.6h-4.5c-1.3,0-2.3-1-2.3-2.3c0-1.3,1.3-3.2,6.8-3.2c5.5,0,6.9,1.3,6.9,3.2v2.3h4.5c4.3,0,7.9,3.6,7.9,7.9v3.1c0,1.3-1,2.3-2.3,2.3h-2.5v-3.7c0-4.5-3.6-8.1-8.1-8.1h-6.2v1.7h-0.2L20.1,6z" fill="#38BDF8" transform="scale(0.8) translate(5, 5)" />
      <path d="M20.1,6C15,6,11.2,9.6,11.2,14.7v3.2h9.1v1.4h-6.4c-4.9,0-8.5,3.6-8.5,8.6c0,5.1,3.7,8.6,8.8,8.6h3.2v-4.4c0-4.5,3.6-8.1,8.1-8.1h6.6v-3.2c0-5.1-3.7-8.7-8.8-8.7h-3.2v2.6h-4.5c-1.3,0-2.3-1-2.3-2.3c0-1.3,1.3-3.2,6.8-3.2c5.5,0,6.9,1.3,6.9,3.2v2.3h4.5c4.3,0,7.9,3.6,7.9,7.9v3.1c0,1.3-1,2.3-2.3,2.3h-2.5v-3.7c0-4.5-3.6-8.1-8.1-8.1h-6.2v1.7h-0.2L20.1,6z" fill="#FDE047" transform="rotate(180, 20, 20) scale(0.8) translate(-5, -5)" />
      <circle cx="16.5" cy="10.5" r="0.8" fill="#0C0B16" />
      <circle cx="23.5" cy="29.5" r="0.8" fill="#0C0B16" />
    </g>
  </g>

  <!-- JavaScript -->
  <g transform="translate(268, 49)">
    <g class="logo-wrapper">
      <title>JavaScript</title>
      <rect width="40" height="40" rx="8" fill="#F7DF1E"/>
      <text x="34" y="34" font-family="-apple-system, sans-serif" font-weight="900" font-size="12" fill="#000000" text-anchor="end">JS</text>
    </g>
  </g>

  <!-- HTML5 -->
  <g transform="translate(316, 49)">
    <g class="logo-wrapper">
      <title>HTML5</title>
      <rect width="40" height="40" rx="8" fill="#161b22" />
      <g transform="scale(0.85) translate(3, 3)">
        <path d="M4,2 l3.2,32.4 12.8,3.6 12.8,-3.6 3.2,-32.4 H4 z" fill="#E34F26"/>
        <path d="M20,4.6 V35 l9.6,-2.7 2.4,-24.3 H20 z" fill="#EF652A"/>
        <path d="M20,12.9 H13.3 l0.5,5.6 H20 v5.6 l-5.7,-1.5 -0.4,-4 h-5.6 l0.8,9.2 10.9,3 V12.9 z" fill="#EAEAEA"/>
        <path d="M20,12.9 h6.8 l-0.6,7.2 H20 v5.6 l5.7,-1.5 0.6,-6.4 H20 V12.9 z" fill="#FFFFFF"/>
      </g>
    </g>
  </g>

  <!-- CSS3 -->
  <g transform="translate(364, 49)">
    <g class="logo-wrapper">
      <title>CSS3</title>
      <rect width="40" height="40" rx="8" fill="#161b22" />
      <g transform="scale(0.85) translate(3, 3)">
        <path d="M4,2 l3.2,32.4 12.8,3.6 12.8,-3.6 3.2,-32.4 H4 z" fill="#1572B6"/>
        <path d="M20,4.6 V35 l9.6,-2.7 2.4,-24.3 H20 z" fill="#33A9DC"/>
        <path d="M20,12.9 H13.3 l0.5,5.6 H20 V12.9 z M20,24.1 l-5.7,-1.5 -0.4,-4 h-5.6 l0.8,9.2 10.9,3 V24.1 z" fill="#EAEAEA"/>
        <path d="M20,12.9 h6.8 l-0.6,7.2 H20 v5.6 l5.7,-1.5 0.6,-6.4 H20 V12.9 z M20,18.5 h6.8 l-0.6,5.6 -6.2,1.7 V18.5 z" fill="#FFFFFF"/>
      </g>
    </g>
  </g>

  <!-- C -->
  <g transform="translate(412, 49)">
    <g class="logo-wrapper">
      <title>C Language</title>
      <rect width="40" height="40" rx="8" fill="#5c6bc0" />
      <text x="20" y="27" font-family="-apple-system, sans-serif" font-weight="900" font-size="18" fill="#ffffff" text-anchor="middle">C</text>
    </g>
  </g>

  <!-- SQL (Database icon) -->
  <g transform="translate(460, 49)">
    <g class="logo-wrapper">
      <title>SQL Database</title>
      <rect width="40" height="40" rx="8" fill="#336791" />
      <ellipse cx="20" cy="14" rx="8" ry="3.5" fill="none" stroke="#ffffff" stroke-width="2" />
      <path d="M12,14 V20 C12,22 15,23.5 20,23.5 C25,23.5 28,22 28,20 V14" fill="none" stroke="#ffffff" stroke-width="2" />
      <path d="M12,20 V26 C12,28 15,29.5 20,29.5 C25,29.5 28,28 28,26 V20" fill="none" stroke="#ffffff" stroke-width="2" />
    </g>
  </g>

  <!-- Git -->
  <g transform="translate(508, 49)">
    <g class="logo-wrapper">
      <title>Git</title>
      <rect width="40" height="40" rx="8" fill="#F05032" />
      <path d="M20,8 L32,20 L20,32 L8,20 Z" fill="none" stroke="#FFFFFF" stroke-width="2.5" stroke-linejoin="round" />
      <line x1="20" y1="14" x2="20" y2="26" stroke="#FFFFFF" stroke-width="2.5" />
      <path d="M20,20 C20,20,25,20,25,25" fill="none" stroke="#FFFFFF" stroke-width="2.5" />
      <circle cx="20" cy="14" r="2.5" fill="#F05032" stroke="#FFFFFF" stroke-width="2" />
      <circle cx="20" cy="26" r="2.5" fill="#F05032" stroke="#FFFFFF" stroke-width="2" />
      <circle cx="25" cy="25" r="2.5" fill="#F05032" stroke="#FFFFFF" stroke-width="2" />
    </g>
  </g>

  <!-- GitHub -->
  <g transform="translate(556, 49)">
    <g class="logo-wrapper">
      <title>GitHub</title>
      <rect width="40" height="40" rx="8" fill="#181717" stroke="#333333" stroke-width="1" />
      <path d="M20,6 C12.3,6,6,12.3,6,20 C6,26.2,10,31.4,15.6,33.3 C16.3,33.4,16.6,33,16.6,32.6 C16.6,32.3,16.6,31.2,16.6,30 C12.7,30.8,11.9,28.3,11.9,28.3 C11.3,26.7,10.4,26.3,10.4,26.3 C9.1,25.4,10.5,25.4,10.5,25.4 C11.9,25.5,12.7,26.9,12.7,26.9 C14,29.1,16.1,28.5,16.9,28.1 C17,27.1,17.4,26.5,17.9,26 C14.8,25.7,11.5,24.5,11.5,19.1 C11.5,17.6,12,16.3,12.9,15.3 C12.8,15,12.3,13.6,13,11.8 C13,11.8,14.1,11.4,16.6,13.2 C17.7,12.9,18.9,12.7,20,12.7 C21.1,12.7,22.3,12.9,23.4,13.2 C25.9,11.4,27,11.8,27,11.8 C27.7,13.6,27.2,15,27.1,15.3 C28,16.3,28.5,17.6,28.5,19.1 C28.5,24.5,25.2,25.7,22.1,26 C22.6,26.5,23,27.4,23,28.7 C23,30.6,23,32.1,23,32.6 C23,33,23.3,33.5,24,33.3 C29.6,31.4,33.6,26.2,33.6,20 C33.6,12.3,27.3,6,20,6 Z" fill="#FFFFFF" />
    </g>
  </g>


  <!-- ===================== ROW 2: PQC & CRYPTOGRAPHY ===================== -->
  <text x="100" y="132" text-anchor="middle" class="category-text">PQC &amp;</text>
  <text x="100" y="146" text-anchor="middle" class="category-text">Cryptography</text>

  <!-- liboqs -->
  <g transform="translate(220, 117)">
    <g class="logo-wrapper">
      <title>liboqs (Open Quantum Safe)</title>
      <rect width="40" height="40" rx="8" fill="#0c1020" stroke="#00f2fe" stroke-width="1" />
      <path d="M14,18 V13 C14,9.7,16.7,7,20,7 C23.3,7,26,9.7,26,13 V18" fill="none" stroke="#00f2fe" stroke-width="2" />
      <rect x="11" y="18" width="18" height="12" rx="2" fill="#00f2fe" />
      <circle cx="20" cy="23" r="1.5" fill="#0c1020" />
      <path d="M20,24 V27" stroke="#0c1020" stroke-width="1.5" stroke-linecap="round" />
      <ellipse cx="20" cy="20" rx="16" ry="5" fill="none" stroke="#a855f7" stroke-width="1" transform="rotate(30, 20, 20)" opacity="0.7" />
      <ellipse cx="20" cy="20" rx="16" ry="5" fill="none" stroke="#a855f7" stroke-width="1" transform="rotate(-30, 20, 20)" opacity="0.7" />
    </g>
  </g>

  <!-- Utimaco HSM -->
  <g transform="translate(268, 117)">
    <g class="logo-wrapper">
      <title>Utimaco HSM (PKCS#11)</title>
      <rect width="40" height="40" rx="8" fill="#1e293b" stroke="#64748b" stroke-width="1" />
      <rect x="6" y="15" width="28" height="10" rx="1" fill="#334155" />
      <circle cx="10" cy="20" r="1.5" fill="#10b981" />
      <circle cx="14" cy="20" r="1.5" fill="#10b981" />
      <circle cx="26" cy="20" r="3" fill="none" stroke="#e2e8f0" stroke-width="1.5" />
      <path d="M28,20 H32 V23" stroke="#e2e8f0" stroke-width="1.5" stroke-linecap="round" />
    </g>
  </g>

  <!-- AES-256-GCM -->
  <g class="tech-pill" transform="translate(316, 126)">
    <title>AES-256-GCM authenticated encryption</title>
    <rect width="95" height="22" rx="4" fill="#b45309" />
    <text x="47.5" y="15" text-anchor="middle" class="pill-text">AES-256-GCM</text>
  </g>

  <!-- X25519 -->
  <g class="tech-pill" transform="translate(421, 126)">
    <title>X25519 Ephemeral Key Exchange</title>
    <rect width="70" height="22" rx="4" fill="#db2777" />
    <text x="35" y="15" text-anchor="middle" class="pill-text">X25519</text>
  </g>

  <!-- ED25519 -->
  <g class="tech-pill" transform="translate(501, 126)">
    <title>Ed25519 Verdict Signatures</title>
    <rect width="70" height="22" rx="4" fill="#2563eb" />
    <text x="35" y="15" text-anchor="middle" class="pill-text">ED25519</text>
  </g>

  <!-- PKCS#11 -->
  <g class="tech-pill" transform="translate(581, 126)">
    <title>PKCS#11 Cryptographic Token Interface</title>
    <rect width="75" height="22" rx="4" fill="#0891b2" />
    <text x="37.5" y="15" text-anchor="middle" class="pill-text">PKCS#11</text>
  </g>

  <!-- FERNET -->
  <g class="tech-pill" transform="translate(666, 126)">
    <title>Fernet Envelope Encryption</title>
    <rect width="70" height="22" rx="4" fill="#dc2626" />
    <text x="35" y="15" text-anchor="middle" class="pill-text">FERNET</text>
  </g>

  <!-- PBKDF2 -->
  <g class="tech-pill" transform="translate(746, 126)">
    <title>PBKDF2 SHA-256 Key Derivation</title>
    <rect width="75" height="22" rx="4" fill="#4f46e5" />
    <text x="37.5" y="15" text-anchor="middle" class="pill-text">PBKDF2</text>
  </g>


  <!-- ===================== ROW 3: BACKEND & DATABASES ===================== -->
  <text x="100" y="212" text-anchor="middle" class="category-text">Backend &amp;</text>
  <text x="100" y="226" text-anchor="middle" class="category-text">Databases</text>

  <!-- FastAPI -->
  <g transform="translate(220, 181)">
    <g class="logo-wrapper">
      <title>FastAPI</title>
      <rect width="40" height="40" rx="8" fill="#059669" />
      <path d="M21,6 L29,18 L22,18 L24,34 L12,20 L19,20 Z" fill="#ffffff" />
    </g>
  </g>

  <!-- Flask -->
  <g transform="translate(268, 181)">
    <g class="logo-wrapper">
      <title>Flask</title>
      <rect width="40" height="40" rx="8" fill="#1e293b" stroke="#00c853" stroke-width="1" />
      <path d="M15,8 h10 v3 H22 v6.5 L29,29 C30,31 28.5,33 26,33 H14 C11.5,33 10,31 11,29 L18,17.5 V11 H15 V8 Z" fill="none" stroke="#00c853" stroke-width="2.5" stroke-linejoin="round" />
    </g>
  </g>

  <!-- PostgreSQL -->
  <g transform="translate(316, 181)">
    <g class="logo-wrapper">
      <title>PostgreSQL</title>
      <rect width="40" height="40" rx="8" fill="#336791" />
      <path d="M20,7c-6.6,0-12,5.4-12,12c0,4.2,2.2,7.8,5.5,10l-1.5,4h5.5l1-3h3v3h5v-3h3l1,3h5.5l-1.5-4c3.3-2.2,5.5-5.8,5.5-10C32,12.4,26.6,7,20,7zm-3,8c.8,0,1.5.7,1.5,1.5S17.8,18,17,18s-1.5-.7-1.5-1.5S16.2,15,17,15zm6,0c.8,0,1.5.7,1.5,1.5S23.8,18,23,18s-1.5-.7-1.5-1.5S22.2,15,23,15z" fill="#ffffff" />
    </g>
  </g>

  <!-- SQLAlchemy -->
  <g class="tech-pill" transform="translate(364, 190)">
    <title>SQLAlchemy ORM</title>
    <rect width="100" height="22" rx="4" fill="#0891b2" />
    <text x="50" y="15" text-anchor="middle" class="pill-text">SQLALCHEMY</text>
  </g>

  <!-- Alembic -->
  <g class="tech-pill" transform="translate(474, 190)">
    <title>Alembic DB Migrations</title>
    <rect width="75" height="22" rx="4" fill="#dc2626" />
    <text x="37.5" y="15" text-anchor="middle" class="pill-text">ALEMBIC</text>
  </g>

  <!-- Uvicorn -->
  <g class="tech-pill" transform="translate(559, 190)">
    <title>Uvicorn ASGI Web Server</title>
    <rect width="80" height="22" rx="4" fill="#7c3aed" />
    <text x="40" y="15" text-anchor="middle" class="pill-text">UVICORN</text>
  </g>

  <!-- Gunicorn -->
  <g class="tech-pill" transform="translate(649, 190)">
    <title>Gunicorn WSGI Server</title>
    <rect width="85" height="22" rx="4" fill="#16a34a" />
    <text x="42.5" y="15" text-anchor="middle" class="pill-text">GUNICORN</text>
  </g>

  <!-- Line 2: Backend pills -->
  <!-- REST APIs -->
  <g class="tech-pill" transform="translate(220, 231)">
    <title>REST APIs Endpoints</title>
    <rect width="85" height="22" rx="4" fill="#2563eb" />
    <text x="42.5" y="15" text-anchor="middle" class="pill-text">REST APIS</text>
  </g>

  <!-- pdfplumber -->
  <g class="tech-pill" transform="translate(315, 231)">
    <title>pdfplumber NLP Parsing</title>
    <rect width="95" height="22" rx="4" fill="#b45309" />
    <text x="47.5" y="15" text-anchor="middle" class="pill-text">PDFPLUMBER</text>
  </g>

  <!-- Groq AI -->
  <g class="tech-pill" transform="translate(420, 231)">
    <title>Groq LLM AI Copilot</title>
    <rect width="75" height="22" rx="4" fill="#4f46e5" />
    <text x="37.5" y="15" text-anchor="middle" class="pill-text">GROQ AI</text>
  </g>

  <!-- BeautifulSoup -->
  <g class="tech-pill" transform="translate(505, 231)">
    <title>BeautifulSoup Web Scraper</title>
    <rect width="115" height="22" rx="4" fill="#16a34a" />
    <text x="57.5" y="15" text-anchor="middle" class="pill-text">BEAUTIFULSOUP</text>
  </g>

  <!-- HTTPX -->
  <g class="tech-pill" transform="translate(630, 231)">
    <title>HTTPX Client request pool</title>
    <rect width="65" height="22" rx="4" fill="#0891b2" />
    <text x="32.5" y="15" text-anchor="middle" class="pill-text">HTTPX</text>
  </g>


  <!-- ===================== ROW 4: FRONTEND & MOBILE ===================== -->
  <text x="100" y="308" text-anchor="middle" class="category-text">Frontend &amp;</text>
  <text x="100" y="322" text-anchor="middle" class="category-text">Mobile</text>

  <!-- React Native -->
  <g transform="translate(220, 277)">
    <g class="logo-wrapper">
      <title>React Native</title>
      <rect width="40" height="40" rx="8" fill="#20232A" />
      <circle cx="20" cy="20" r="2.5" fill="#61DAFB" />
      <ellipse cx="20" cy="20" rx="15" ry="5.5" fill="none" stroke="#61DAFB" stroke-width="1.2" />
      <ellipse cx="20" cy="20" rx="15" ry="5.5" fill="none" stroke="#61DAFB" stroke-width="1.2" transform="rotate(60, 20, 20)" />
      <ellipse cx="20" cy="20" rx="15" ry="5.5" fill="none" stroke="#61DAFB" stroke-width="1.2" transform="rotate(120, 20, 20)" />
    </g>
  </g>

  <!-- Expo -->
  <g transform="translate(268, 277)">
    <g class="logo-wrapper">
      <title>Expo</title>
      <rect width="40" height="40" rx="8" fill="#000000" stroke="#333333" stroke-width="1" />
      <path d="M20,9 L32,30 H26.5 L20,19.5 L13.5,30 H8 Z" fill="#FFFFFF" />
    </g>
  </g>

  <!-- Vite -->
  <g transform="translate(316, 277)">
    <g class="logo-wrapper">
      <title>Vite</title>
      <rect width="40" height="40" rx="8" fill="#1b1b1f" />
      <path d="M7,11 L20,32 L33,11" fill="none" stroke="#bd34fe" stroke-width="4.5" stroke-linecap="round" stroke-linejoin="round" />
      <path d="M22,7 L14,20 H20 L18,33 L29,16 H22 Z" fill="#ffd859" />
    </g>
  </g>

  <!-- Tailwind CSS -->
  <g transform="translate(364, 277)">
    <g class="logo-wrapper">
      <title>Tailwind CSS</title>
      <rect width="40" height="40" rx="8" fill="#0B111E" />
      <path d="M20,11.5 C15.5,11.5,12.8,13.8,12,18.3 C13.8,15.8,15.6,15,17.6,15.8 C18.7,16.2,19.6,17.2,20.6,18.2 C22.2,19.9,24.2,21.9,28.8,21.9 C33.3,21.9,36,19.6,36.8,15.1 C35,17.6,33.2,18.4,31.2,17.6 C30.1,17.2,29.2,16.2,28.2,15.2 C26.6,13.5,24.6,11.5,20,11.5 Z M12,21.9 C7.5,21.9,4.8,24.2,4,28.7 C5.8,26.2,7.6,25.4,9.6,26.2 C10.7,26.6,11.6,27.6,12.6,28.6 C14.2,30.3,16.2,32.3,20.8,32.3 C25.3,32.3,28,30.0,28.8,25.5 C27,28.0,25.2,28.8,23.2,28.0 C22.1,27.6,21.2,26.6,20.2,25.6 C18.6,23.9,16.6,21.9,12,21.9 Z" fill="#38bdf8" />
    </g>
  </g>

  <!-- Axios -->
  <g class="tech-pill" transform="translate(412, 286)">
    <title>Axios network client</title>
    <rect width="70" height="22" rx="4" fill="#7c3aed" />
    <text x="35" y="15" text-anchor="middle" class="pill-text">AXIOS</text>
  </g>

  <!-- React Router -->
  <g class="tech-pill" transform="translate(492, 286)">
    <title>React Router dynamic routing</title>
    <rect width="110" height="22" rx="4" fill="#2563eb" />
    <text x="55" y="15" text-anchor="middle" class="pill-text">REACT ROUTER</text>
  </g>

  <!-- Line 2: Mobile/Front pills -->
  <!-- Responsive Design -->
  <g class="tech-pill" transform="translate(220, 327)">
    <title>Responsive Web Layout</title>
    <rect width="135" height="22" rx="4" fill="#16a34a" />
    <text x="67.5" y="15" text-anchor="middle" class="pill-text">RESPONSIVE DESIGN</text>
  </g>

  <!-- AsyncStorage -->
  <g class="tech-pill" transform="translate(365, 327)">
    <title>React Native AsyncStorage client cache</title>
    <rect width="115" height="22" rx="4" fill="#4f46e5" />
    <text x="57.5" y="15" text-anchor="middle" class="pill-text">ASYNCSTORAGE</text>
  </g>

  <!-- SecureStore -->
  <g class="tech-pill" transform="translate(490, 327)">
    <title>Expo SecureStore client encryption</title>
    <rect width="100" height="22" rx="4" fill="#0891b2" />
    <text x="50" y="15" text-anchor="middle" class="pill-text">SECURESTORE</text>
  </g>


  <!-- ===================== ROW 5: TOOLS & DEPLOYMENT ===================== -->
  <text x="100" y="404" text-anchor="middle" class="category-text">Tools &amp;</text>
  <text x="100" y="418" text-anchor="middle" class="category-text">Deployment</text>

  <!-- Postman -->
  <g transform="translate(220, 373)">
    <g class="logo-wrapper">
      <title>Postman</title>
      <rect width="40" height="40" rx="8" fill="#FF6C37" />
      <path d="M28.4,18.7c0.2-1.3,0-2.6-0.6-3.8c-1.1-2.2-3.6-3.3-5.9-2.7c-0.8-2.6-3.3-4.3-6.1-4c-3.1,0.3-5.3,3-5,6.1c0.1,0.9,0.5,1.7,1,2.4c-1.3,1.1-2,2.8-1.7,4.6c0.4,2.5,2.4,4.4,4.9,4.7c0.6,0.1,1.1,0,1.7-0.1c1.3,1.9,3.5,3,5.8,2.7c3.1-0.3,5.3-3,5-6.1c-0.1-0.9-0.5-1.7-1-2.4C27.8,19.8,28.3,19.3,28.4,18.7z M18.5,28.2c-1.6,0.2-3.1-0.6-3.9-1.9c-0.3-0.5-0.5-1.1-0.5-1.7c0-0.4,0.1-0.8,0.3-1.1l5.4-9.3l1.7,1l-5.4,9.3c-0.3,0.5-0.1,1.2,0.4,1.5c0.5,0.3,1.2,0.1,1.5-0.4l5.4-9.3l1.7,1l-5.4,9.3C19.7,27.7,19.1,28.1,18.5,28.2z" fill="#FFFFFF" />
    </g>
  </g>

  <!-- Pytest -->
  <g transform="translate(268, 373)">
    <g class="logo-wrapper">
      <title>Pytest</title>
      <rect width="40" height="40" rx="8" fill="#0C0B16" stroke="#33CCFF" stroke-width="1" />
      <path d="M12,20 L18,26 L30,12" fill="none" stroke="#38BDF8" stroke-width="4.5" stroke-linecap="round" stroke-linejoin="round" opacity="0.9" />
      <path d="M10,22 L16,28 L28,14" fill="none" stroke="#FDE047" stroke-width="2.5" stroke-linecap="round" stroke-linejoin="round" />
    </g>
  </g>

  <!-- Render -->
  <g class="tech-pill" transform="translate(316, 382)">
    <title>Render cloud hosting</title>
    <rect width="75" height="22" rx="4" fill="#2563eb" />
    <text x="37.5" y="15" text-anchor="middle" class="pill-text">RENDER</text>
  </g>

  <!-- Netlify -->
  <g class="tech-pill" transform="translate(401, 382)">
    <title>Netlify static host</title>
    <rect width="75" height="22" rx="4" fill="#0891b2" />
    <text x="37.5" y="15" text-anchor="middle" class="pill-text">NETLIFY</text>
  </g>

  <!-- SSL Pinning -->
  <g class="tech-pill" transform="translate(486, 382)">
    <title>SSL certificate public key pinning</title>
    <rect width="95" height="22" rx="4" fill="#dc2626" />
    <text x="47.5" y="15" text-anchor="middle" class="pill-text">SSL PINNING</text>
  </g>

  <!-- Line 2: Tools pills -->
  <!-- Play Integrity -->
  <g class="tech-pill" transform="translate(220, 423)">
    <title>Google Play Integrity client attestation</title>
    <rect width="115" height="22" rx="4" fill="#b45309" />
    <text x="57.5" y="15" text-anchor="middle" class="pill-text">PLAY INTEGRITY</text>
  </g>

  <!-- App Attest -->
  <g class="tech-pill" transform="translate(345, 423)">
    <title>Apple App Attest client device attestation</title>
    <rect width="95" height="22" rx="4" fill="#16a34a" />
    <text x="47.5" y="15" text-anchor="middle" class="pill-text">APP ATTEST</text>
  </g>

  <!-- Asyncio -->
  <g class="tech-pill" transform="translate(450, 423)">
    <title>Python Asyncio non-blocking event loop</title>
    <rect width="75" height="22" rx="4" fill="#4f46e5" />
    <text x="37.5" y="15" text-anchor="middle" class="pill-text">ASYNCIO</text>
  </g>


  <!-- =================== FLOATING PARTICLES OVERLAY =================== -->
  <g id="readme-theme-overlay" opacity="0.8">
    <!-- Cherry Blossom Petal 1 -->
    <path d="M 0,0 C -3,-5 -8,-3 -7,2 C -5,7 0,10 0,10 C 0,10 5,7 7,2 C 8,-3 3,-5 0,0 Z" fill="#FFB7C5" opacity="0.12">
      <animateTransform attributeName="transform" type="translate" values="-20,40; 870,300" dur="18s" repeatCount="indefinite" />
      <animateTransform attributeName="transform" type="rotate" values="0; 360" dur="12s" repeatCount="indefinite" additive="sum" />
    </path>
    <!-- Cherry Blossom Petal 2 -->
    <path d="M 0,0 C -3,-5 -8,-3 -7,2 C -5,7 0,10 0,10 C 0,10 5,7 7,2 C 8,-3 3,-5 0,0 Z" fill="#FFB7C5" opacity="0.1">
      <animateTransform attributeName="transform" type="translate" values="120,-20; 880,210" dur="22s" repeatCount="indefinite" />
      <animateTransform attributeName="transform" type="rotate" values="45; 405" dur="15s" repeatCount="indefinite" additive="sum" />
    </path>
    <!-- Cherry Blossom Petal 3 -->
    <path d="M 0,0 C -3,-5 -8,-3 -7,2 C -5,7 0,10 0,10 C 0,10 5,7 7,2 C 8,-3 3,-5 0,0 Z" fill="#FF8DA1" opacity="0.08">
      <animateTransform attributeName="transform" type="translate" values="-50,160; 830,420" dur="20s" repeatCount="indefinite" />
      <animateTransform attributeName="transform" type="rotate" values="90; 450" dur="18s" repeatCount="indefinite" additive="sum" />
    </path>
    <!-- Cherry Blossom Petal 4 -->
    <path d="M 0,0 C -3,-5 -8,-3 -7,2 C -5,7 0,10 0,10 C 0,10 5,7 7,2 C 8,-3 3,-5 0,0 Z" fill="#FFB7C5" opacity="0.12">
      <animateTransform attributeName="transform" type="translate" values="280,-30; 780,420" dur="25s" repeatCount="indefinite" />
      <animateTransform attributeName="transform" type="rotate" values="10; 730" dur="24s" repeatCount="indefinite" additive="sum" />
    </path>

    <!-- Coding Particles -->
    <text x="0" y="0" fill="#00F2FE" font-family="monospace" font-size="11" font-weight="bold" opacity="0.1">
      &lt;/&gt;
      <animateTransform attributeName="transform" type="translate" values="40,380; 810,30" dur="26s" repeatCount="indefinite" />
      <animateTransform attributeName="transform" type="rotate" values="0; -360" dur="16s" repeatCount="indefinite" additive="sum" />
    </text>
    <text x="0" y="0" fill="#8B5CF6" font-family="monospace" font-size="13" font-weight="bold" opacity="0.08">
      {{
      <animateTransform attributeName="transform" type="translate" values="180,430; 790,60" dur="28s" repeatCount="indefinite" />
      <animateTransform attributeName="transform" type="rotate" values="0; 360" dur="20s" repeatCount="indefinite" additive="sum" />
    </text>
    <text x="0" y="0" fill="#3B82F6" font-family="monospace" font-size="12" font-weight="bold" opacity="0.1">
      ( )
      <animateTransform attributeName="transform" type="translate" values="10,220; 840,10" dur="23s" repeatCount="indefinite" />
      <animateTransform attributeName="transform" type="rotate" values="30; 390" dur="14s" repeatCount="indefinite" additive="sum" />
    </text>

    <!-- Sparkle Dots -->
    <circle cx="0" cy="0" r="1.5" fill="#00F2FE" opacity="0.15">
      <animateTransform attributeName="transform" type="translate" values="-30,80; 860,350" dur="19s" repeatCount="indefinite" />
    </circle>
    <circle cx="0" cy="0" r="1.2" fill="#8B5CF6" opacity="0.18">
      <animateTransform attributeName="transform" type="translate" values="140,-10; 810,380" dur="24s" repeatCount="indefinite" />
    </circle>
  </g>
</svg>
