<svg xmlns="http://www.w3.org/2000/svg" viewBox="0 0 850 376" width="100%" height="376">
  <style>
    .table-bg {
      fill: #0d1117;
    }
    .grid-line {
      stroke: #30363d;
      stroke-width: 1;
    }
    .header-text {
      font-family: -apple-system, BlinkMacSystemFont, "Segoe UI", Helvetica, Arial, sans-serif;
      font-weight: 600;
      font-size: 12px;
      fill: #8b949e;
      letter-spacing: 0.5px;
    }
    .category-text {
      font-family: -apple-system, BlinkMacSystemFont, "Segoe UI", Helvetica, Arial, sans-serif;
      font-weight: 600;
      font-size: 11px;
      fill: #c9d1d9;
    }
    .pill-text {
      font-family: -apple-system, BlinkMacSystemFont, "Segoe UI", Helvetica, Arial, sans-serif;
      font-weight: 700;
      font-size: 9px;
      fill: #ffffff;
      letter-spacing: 0.5px;
    }
    .tech-pill {
      cursor: pointer;
      transition: transform 0.2s cubic-bezier(0.4, 0, 0.2, 1), filter 0.2s ease;
    }
    .tech-pill:hover {
      transform: scale(1.08) translateY(-1px);
      filter: drop-shadow(0 2px 6px rgba(255, 255, 255, 0.25));
    }
  </style>

  <!-- Table Body Background -->
  <rect width="850" height="376" fill="#0d1117" rx="8" />

  <!-- Header Background (Rounded top corners) -->
  <path d="M8,0.5 h834 a8,8 0 0 1 8,8 v26.5 h-850 v-26.5 a8,8 0 0 1 8,-8 z" fill="#161b22" />

  <!-- Header Texts -->
  <text x="100" y="22" text-anchor="middle" class="header-text">Category</text>
  <text x="525" y="22" text-anchor="middle" class="header-text">Technologies</text>

  <!-- Vertical Divider Line -->
  <line x1="200" y1="0" x2="200" y2="375" class="grid-line" />

  <!-- Horizontal Grid Lines -->
  <line x1="0" y1="35" x2="850" y2="35" class="grid-line" />
  <line x1="0" y1="87" x2="850" y2="87" class="grid-line" />
  <line x1="0" y1="159" x2="850" y2="159" class="grid-line" />
  <line x1="0" y1="231" x2="850" y2="231" class="grid-line" />
  <line x1="0" y1="303" x2="850" y2="303" class="grid-line" />

  <!-- Outer Rounded Border Outline -->
  <rect x="0.5" y="0.5" width="849" height="374" fill="none" stroke="#30363d" stroke-width="1" rx="8" />

  <!-- ===================== ROW 1: LANGUAGES & CORE TOOLS ===================== -->
  <text x="100" y="56" text-anchor="middle" class="category-text">Languages &amp;</text>
  <text x="100" y="70" text-anchor="middle" class="category-text">Core Tools</text>

  <!-- Python -->
  <g class="tech-pill" transform="translate(220, 50)">
    <title>Python programming language</title>
    <rect width="65" height="22" rx="4" fill="#b45309" />
    <text x="32.5" y="15" text-anchor="middle" class="pill-text">PYTHON</text>
  </g>

  <!-- JavaScript -->
  <g class="tech-pill" transform="translate(293, 50)">
    <title>JavaScript programming language</title>
    <rect width="90" height="22" rx="4" fill="#eab308" />
    <text x="45" y="15" text-anchor="middle" class="pill-text" fill="#000000">JAVASCRIPT</text>
  </g>

  <!-- C -->
  <g class="tech-pill" transform="translate(391, 50)">
    <title>C programming language</title>
    <rect width="35" height="22" rx="4" fill="#4f46e5" />
    <text x="17.5" y="15" text-anchor="middle" class="pill-text">C</text>
  </g>

  <!-- HTML5 -->
  <g class="tech-pill" transform="translate(434, 50)">
    <title>HTML5 markup language</title>
    <rect width="60" height="22" rx="4" fill="#dc2626" />
    <text x="30" y="15" text-anchor="middle" class="pill-text">HTML5</text>
  </g>

  <!-- CSS3 -->
  <g class="tech-pill" transform="translate(502, 50)">
    <title>CSS3 style sheets</title>
    <rect width="60" height="22" rx="4" fill="#2563eb" />
    <text x="30" y="15" text-anchor="middle" class="pill-text">CSS3</text>
  </g>

  <!-- SQL -->
  <g class="tech-pill" transform="translate(570, 50)">
    <title>Structured Query Language</title>
    <rect width="45" height="22" rx="4" fill="#0891b2" />
    <text x="22.5" y="15" text-anchor="middle" class="pill-text">SQL</text>
  </g>

  <!-- Git -->
  <g class="tech-pill" transform="translate(623, 50)">
    <title>Git version control</title>
    <rect width="45" height="22" rx="4" fill="#ea580c" />
    <text x="22.5" y="15" text-anchor="middle" class="pill-text">GIT</text>
  </g>

  <!-- GitHub -->
  <g class="tech-pill" transform="translate(676, 50)">
    <title>GitHub repository hosting</title>
    <rect width="65" height="22" rx="4" fill="#1f2937" />
    <text x="32.5" y="15" text-anchor="middle" class="pill-text">GITHUB</text>
  </g>


  <!-- ===================== ROW 2: PQC & CRYPTOGRAPHY ===================== -->
  <text x="100" y="118" text-anchor="middle" class="category-text">PQC &amp;</text>
  <text x="100" y="132" text-anchor="middle" class="category-text">Cryptography</text>

  <!-- liboqs -->
  <g class="tech-pill" transform="translate(220, 97)">
    <title>liboqs (Open Quantum Safe)</title>
    <rect width="65" height="22" rx="4" fill="#db2777" />
    <text x="32.5" y="15" text-anchor="middle" class="pill-text">LIBOQS</text>
  </g>

  <!-- Utimaco HSM -->
  <g class="tech-pill" transform="translate(293, 97)">
    <title>Utimaco HSM (PKCS#11)</title>
    <rect width="95" height="22" rx="4" fill="#4f46e5" />
    <text x="47.5" y="15" text-anchor="middle" class="pill-text">UTIMACO HSM</text>
  </g>

  <!-- AES-256-GCM -->
  <g class="tech-pill" transform="translate(396, 97)">
    <title>AES-256-GCM authenticated encryption</title>
    <rect width="95" height="22" rx="4" fill="#b45309" />
    <text x="47.5" y="15" text-anchor="middle" class="pill-text">AES-256-GCM</text>
  </g>

  <!-- X25519 -->
  <g class="tech-pill" transform="translate(499, 97)">
    <title>X25519 Ephemeral Key Exchange</title>
    <rect width="65" height="22" rx="4" fill="#0891b2" />
    <text x="32.5" y="15" text-anchor="middle" class="pill-text">X25519</text>
  </g>

  <!-- ED25519 -->
  <g class="tech-pill" transform="translate(220, 127)">
    <title>Ed25519 Verdict Signatures</title>
    <rect width="65" height="22" rx="4" fill="#2563eb" />
    <text x="32.5" y="15" text-anchor="middle" class="pill-text">ED25519</text>
  </g>

  <!-- PKCS#11 -->
  <g class="tech-pill" transform="translate(293, 127)">
    <title>PKCS#11 Cryptographic Token Interface</title>
    <rect width="70" height="22" rx="4" fill="#16a34a" />
    <text x="35" y="15" text-anchor="middle" class="pill-text">PKCS#11</text>
  </g>

  <!-- FERNET -->
  <g class="tech-pill" transform="translate(371, 127)">
    <title>Fernet Envelope Encryption</title>
    <rect width="65" height="22" rx="4" fill="#dc2626" />
    <text x="32.5" y="15" text-anchor="middle" class="pill-text">FERNET</text>
  </g>

  <!-- PBKDF2 -->
  <g class="tech-pill" transform="translate(444, 127)">
    <title>PBKDF2 SHA-256 Key Derivation</title>
    <rect width="70" height="22" rx="4" fill="#4f46e5" />
    <text x="35" y="15" text-anchor="middle" class="pill-text">PBKDF2</text>
  </g>


  <!-- ===================== ROW 3: BACKEND & DATABASES ===================== -->
  <text x="100" y="190" text-anchor="middle" class="category-text">Backend &amp;</text>
  <text x="100" y="204" text-anchor="middle" class="category-text">Databases</text>

  <!-- FastAPI -->
  <g class="tech-pill" transform="translate(220, 169)">
    <title>FastAPI Web Framework</title>
    <rect width="65" height="22" rx="4" fill="#009688" />
    <text x="32.5" y="15" text-anchor="middle" class="pill-text">FASTAPI</text>
  </g>

  <!-- Flask -->
  <g class="tech-pill" transform="translate(293, 169)">
    <title>Flask microframework</title>
    <rect width="55" height="22" rx="4" fill="#4caf50" />
    <text x="27.5" y="15" text-anchor="middle" class="pill-text">FLASK</text>
  </g>

  <!-- PostgreSQL -->
  <g class="tech-pill" transform="translate(356, 169)">
    <title>PostgreSQL Database</title>
    <rect width="90" height="22" rx="4" fill="#336791" />
    <text x="45" y="15" text-anchor="middle" class="pill-text">POSTGRESQL</text>
  </g>

  <!-- SQLAlchemy -->
  <g class="tech-pill" transform="translate(454, 169)">
    <title>SQLAlchemy ORM</title>
    <rect width="95" height="22" rx="4" fill="#dc2626" />
    <text x="47.5" y="15" text-anchor="middle" class="pill-text">SQLALCHEMY</text>
  </g>

  <!-- Alembic -->
  <g class="tech-pill" transform="translate(557, 169)">
    <title>Alembic DB Migrations</title>
    <rect width="70" height="22" rx="4" fill="#b45309" />
    <text x="35" y="15" text-anchor="middle" class="pill-text">ALEMBIC</text>
  </g>

  <!-- Uvicorn -->
  <g class="tech-pill" transform="translate(635, 169)">
    <title>Uvicorn ASGI Web Server</title>
    <rect width="70" height="22" rx="4" fill="#7c3aed" />
    <text x="35" y="15" text-anchor="middle" class="pill-text">UVICORN</text>
  </g>

  <!-- Line 2: Backend pills -->
  <!-- Gunicorn -->
  <g class="tech-pill" transform="translate(220, 199)">
    <title>Gunicorn WSGI Server</title>
    <rect width="80" height="22" rx="4" fill="#16a34a" />
    <text x="40" y="15" text-anchor="middle" class="pill-text">GUNICORN</text>
  </g>

  <!-- REST APIs -->
  <g class="tech-pill" transform="translate(308, 199)">
    <title>REST APIs Endpoints</title>
    <rect width="80" height="22" rx="4" fill="#2563eb" />
    <text x="40" y="15" text-anchor="middle" class="pill-text">REST APIS</text>
  </g>

  <!-- pdfplumber -->
  <g class="tech-pill" transform="translate(396, 199)">
    <title>pdfplumber NLP Parsing</title>
    <rect width="90" height="22" rx="4" fill="#b45309" />
    <text x="45" y="15" text-anchor="middle" class="pill-text">PDFPLUMBER</text>
  </g>

  <!-- Groq AI -->
  <g class="tech-pill" transform="translate(494, 199)">
    <title>Groq LLM AI Copilot</title>
    <rect width="65" height="22" rx="4" fill="#7c3aed" />
    <text x="32.5" y="15" text-anchor="middle" class="pill-text">GROQ AI</text>
  </g>

  <!-- BeautifulSoup -->
  <g class="tech-pill" transform="translate(567, 199)">
    <title>BeautifulSoup Web Scraper</title>
    <rect width="110" height="22" rx="4" fill="#4f46e5" />
    <text x="55" y="15" text-anchor="middle" class="pill-text">BEAUTIFULSOUP</text>
  </g>

  <!-- HTTPX -->
  <g class="tech-pill" transform="translate(685, 199)">
    <title>HTTPX Client request pool</title>
    <rect width="55" height="22" rx="4" fill="#0891b2" />
    <text x="27.5" y="15" text-anchor="middle" class="pill-text">HTTPX</text>
  </g>

  <!-- MySQL -->
  <g class="tech-pill" transform="translate(748, 199)">
    <title>MySQL Database</title>
    <rect width="60" height="22" rx="4" fill="#0891b2" />
    <text x="30" y="15" text-anchor="middle" class="pill-text">MYSQL</text>
  </g>


  <!-- ===================== ROW 4: FRONTEND & MOBILE ===================== -->
  <text x="100" y="262" text-anchor="middle" class="category-text">Frontend &amp;</text>
  <text x="100" y="276" text-anchor="middle" class="category-text">Mobile</text>

  <!-- React Native -->
  <g class="tech-pill" transform="translate(220, 241)">
    <title>React Native Framework</title>
    <rect width="95" height="22" rx="4" fill="#0891b2" />
    <text x="47.5" y="15" text-anchor="middle" class="pill-text">REACT NATIVE</text>
  </g>

  <!-- Expo -->
  <g class="tech-pill" transform="translate(323, 241)">
    <title>Expo CLI toolchain</title>
    <rect width="45" height="22" rx="4" fill="#1f2937" />
    <text x="22.5" y="15" text-anchor="middle" class="pill-text">EXPO</text>
  </g>

  <!-- Vite -->
  <g class="tech-pill" transform="translate(376, 241)">
    <title>Vite build tool</title>
    <rect width="45" height="22" rx="4" fill="#7c3aed" />
    <text x="22.5" y="15" text-anchor="middle" class="pill-text">VITE</text>
  </g>

  <!-- Tailwind CSS -->
  <g class="tech-pill" transform="translate(429, 241)">
    <title>Tailwind CSS styling</title>
    <rect width="95" height="22" rx="4" fill="#2563eb" />
    <text x="47.5" y="15" text-anchor="middle" class="pill-text">TAILWIND CSS</text>
  </g>

  <!-- Axios -->
  <g class="tech-pill" transform="translate(532, 241)">
    <title>Axios network client</title>
    <rect width="55" height="22" rx="4" fill="#4f46e5" />
    <text x="27.5" y="15" text-anchor="middle" class="pill-text">AXIOS</text>
  </g>

  <!-- React Router -->
  <g class="tech-pill" transform="translate(595, 241)">
    <title>React Router dynamic routing</title>
    <rect width="105" height="22" rx="4" fill="#dc2626" />
    <text x="52.5" y="15" text-anchor="middle" class="pill-text">REACT ROUTER</text>
  </g>

  <!-- Line 2: Mobile/Front pills -->
  <!-- Responsive Design -->
  <g class="tech-pill" transform="translate(220, 271)">
    <title>Responsive Web Layout</title>
    <rect width="135" height="22" rx="4" fill="#16a34a" />
    <text x="67.5" y="15" text-anchor="middle" class="pill-text">RESPONSIVE DESIGN</text>
  </g>

  <!-- AsyncStorage -->
  <g class="tech-pill" transform="translate(363, 271)">
    <title>React Native AsyncStorage client cache</title>
    <rect width="115" height="22" rx="4" fill="#b45309" />
    <text x="57.5" y="15" text-anchor="middle" class="pill-text">ASYNCSTORAGE</text>
  </g>

  <!-- SecureStore -->
  <g class="tech-pill" transform="translate(486, 271)">
    <title>Expo SecureStore client encryption</title>
    <rect width="100" height="22" rx="4" fill="#db2777" />
    <text x="50" y="15" text-anchor="middle" class="pill-text">SECURESTORE</text>
  </g>


  <!-- ===================== ROW 5: TOOLS & DEPLOYMENT ===================== -->
  <text x="100" y="334" text-anchor="middle" class="category-text">Tools &amp;</text>
  <text x="100" y="348" text-anchor="middle" class="category-text">Deployment</text>

  <!-- Postman -->
  <g class="tech-pill" transform="translate(220, 313)">
    <title>Postman API platform</title>
    <rect width="70" height="22" rx="4" fill="#b45309" />
    <text x="35" y="15" text-anchor="middle" class="pill-text">POSTMAN</text>
  </g>

  <!-- Pytest -->
  <g class="tech-pill" transform="translate(298, 313)">
    <title>Pytest test suite</title>
    <rect width="60" height="22" rx="4" fill="#16a34a" />
    <text x="30" y="15" text-anchor="middle" class="pill-text">PYTEST</text>
  </g>

  <!-- Render -->
  <g class="tech-pill" transform="translate(366, 313)">
    <title>Render cloud hosting</title>
    <rect width="65" height="22" rx="4" fill="#2563eb" />
    <text x="32.5" y="15" text-anchor="middle" class="pill-text">RENDER</text>
  </g>

  <!-- Netlify -->
  <g class="tech-pill" transform="translate(439, 313)">
    <title>Netlify static host</title>
    <rect width="65" height="22" rx="4" fill="#0891b2" />
    <text x="32.5" y="15" text-anchor="middle" class="pill-text">NETLIFY</text>
  </g>

  <!-- SSL Pinning -->
  <g class="tech-pill" transform="translate(512, 313)">
    <title>SSL certificate public key pinning</title>
    <rect width="90" height="22" rx="4" fill="#dc2626" />
    <text x="45" y="15" text-anchor="middle" class="pill-text">SSL PINNING</text>
  </g>

  <!-- Line 2: Tools pills -->
  <!-- Play Integrity -->
  <g class="tech-pill" transform="translate(220, 343)">
    <title>Google Play Integrity client attestation</title>
    <rect width="110" height="22" rx="4" fill="#7c3aed" />
    <text x="55" y="15" text-anchor="middle" class="pill-text">PLAY INTEGRITY</text>
  </g>

  <!-- App Attest -->
  <g class="tech-pill" transform="translate(338, 343)">
    <title>Apple App Attest client device attestation</title>
    <rect width="90" height="22" rx="4" fill="#db2777" />
    <text x="45" y="15" text-anchor="middle" class="pill-text">APP ATTEST</text>
  </g>

  <!-- Asyncio -->
  <g class="tech-pill" transform="translate(436, 343)">
    <title>Python Asyncio non-blocking event loop</title>
    <rect width="65" height="22" rx="4" fill="#4f46e5" />
    <text x="32.5" y="15" text-anchor="middle" class="pill-text">ASYNCIO</text>
  </g>


  <!-- =================== FLOATING PARTICLES OVERLAY =================== -->
  <g id="readme-theme-overlay" opacity="0.8">
    <!-- Cherry Blossom Petal 1 -->
    <path d="M 0,0 C -3,-5 -8,-3 -7,2 C -5,7 0,10 0,10 C 0,10 5,7 7,2 C 8,-3 3,-5 0,0 Z" fill="#FFB7C5" opacity="0.12">
      <animateTransform attributeName="transform" type="translate" values="-20,40; 870,260" dur="18s" repeatCount="indefinite" />
      <animateTransform attributeName="transform" type="rotate" values="0; 360" dur="12s" repeatCount="indefinite" additive="sum" />
    </path>
    <!-- Cherry Blossom Petal 2 -->
    <path d="M 0,0 C -3,-5 -8,-3 -7,2 C -5,7 0,10 0,10 C 0,10 5,7 7,2 C 8,-3 3,-5 0,0 Z" fill="#FFB7C5" opacity="0.1">
      <animateTransform attributeName="transform" type="translate" values="120,-20; 880,180" dur="22s" repeatCount="indefinite" />
      <animateTransform attributeName="transform" type="rotate" values="45; 405" dur="15s" repeatCount="indefinite" additive="sum" />
    </path>
    <!-- Cherry Blossom Petal 3 -->
    <path d="M 0,0 C -3,-5 -8,-3 -7,2 C -5,7 0,10 0,10 C 0,10 5,7 7,2 C 8,-3 3,-5 0,0 Z" fill="#FF8DA1" opacity="0.08">
      <animateTransform attributeName="transform" type="translate" values="-50,160; 830,340" dur="20s" repeatCount="indefinite" />
      <animateTransform attributeName="transform" type="rotate" values="90; 450" dur="18s" repeatCount="indefinite" additive="sum" />
    </path>
    <!-- Cherry Blossom Petal 4 -->
    <path d="M 0,0 C -3,-5 -8,-3 -7,2 C -5,7 0,10 0,10 C 0,10 5,7 7,2 C 8,-3 3,-5 0,0 Z" fill="#FFB7C5" opacity="0.12">
      <animateTransform attributeName="transform" type="translate" values="280,-30; 780,340" dur="25s" repeatCount="indefinite" />
      <animateTransform attributeName="transform" type="rotate" values="10; 730" dur="24s" repeatCount="indefinite" additive="sum" />
    </path>

    <!-- Coding Particles -->
    <text x="0" y="0" fill="#00F2FE" font-family="monospace" font-size="11" font-weight="bold" opacity="0.1">
      &lt;/&gt;
      <animateTransform attributeName="transform" type="translate" values="40,280; 810,30" dur="26s" repeatCount="indefinite" />
      <animateTransform attributeName="transform" type="rotate" values="0; -360" dur="16s" repeatCount="indefinite" additive="sum" />
    </text>
    <text x="0" y="0" fill="#8B5CF6" font-family="monospace" font-size="13" font-weight="bold" opacity="0.08">
      {{
      <animateTransform attributeName="transform" type="translate" values="180,300; 790,60" dur="28s" repeatCount="indefinite" />
      <animateTransform attributeName="transform" type="rotate" values="0; 360" dur="20s" repeatCount="indefinite" additive="sum" />
    </text>
    <text x="0" y="0" fill="#3B82F6" font-family="monospace" font-size="12" font-weight="bold" opacity="0.1">
      ( )
      <animateTransform attributeName="transform" type="translate" values="10,120; 840,10" dur="23s" repeatCount="indefinite" />
      <animateTransform attributeName="transform" type="rotate" values="30; 390" dur="14s" repeatCount="indefinite" additive="sum" />
    </text>

    <!-- Sparkle Dots -->
    <circle cx="0" cy="0" r="1.5" fill="#00F2FE" opacity="0.15">
      <animateTransform attributeName="transform" type="translate" values="-30,80; 860,280" dur="19s" repeatCount="indefinite" />
    </circle>
    <circle cx="0" cy="0" r="1.2" fill="#8B5CF6" opacity="0.18">
      <animateTransform attributeName="transform" type="translate" values="140,-10; 810,300" dur="24s" repeatCount="indefinite" />
    </circle>
  </g>
</svg>
