<svg xmlns="http://www.w3.org/2000/svg" viewBox="0 0 850 470" width="100%" height="470">
  <defs>
    <!-- Glow Filters -->
    <filter id="glow-cyan" x="-40%" y="-40%" width="180%" height="180%">
      <feGaussianBlur stdDeviation="3" result="blur" />
      <feFlood flood-color="#00F2FE" flood-opacity="0.3" result="color" />
      <feComposite in="color" in2="blur" operator="in" result="shadow" />
      <feMerge>
        <feMergeNode in="shadow" />
        <feMergeNode in="SourceGraphic" />
      </feMerge>
    </filter>
    <filter id="glow-purple" x="-40%" y="-40%" width="180%" height="180%">
      <feGaussianBlur stdDeviation="3" result="blur" />
      <feFlood flood-color="#A855F7" flood-opacity="0.3" result="color" />
      <feComposite in="color" in2="blur" operator="in" result="shadow" />
      <feMerge>
        <feMergeNode in="shadow" />
        <feMergeNode in="SourceGraphic" />
      </feMerge>
    </filter>
    <filter id="glow-pink" x="-40%" y="-40%" width="180%" height="180%">
      <feGaussianBlur stdDeviation="3" result="blur" />
      <feFlood flood-color="#FFB7C5" flood-opacity="0.3" result="color" />
      <feComposite in="color" in2="blur" operator="in" result="shadow" />
      <feMerge>
        <feMergeNode in="shadow" />
        <feMergeNode in="SourceGraphic" />
      </feMerge>
    </filter>
    <filter id="glow-green" x="-40%" y="-40%" width="180%" height="180%">
      <feGaussianBlur stdDeviation="3" result="blur" />
      <feFlood flood-color="#10B981" flood-opacity="0.3" result="color" />
      <feComposite in="color" in2="blur" operator="in" result="shadow" />
      <feMerge>
        <feMergeNode in="shadow" />
        <feMergeNode in="SourceGraphic" />
      </feMerge>
    </filter>
    <filter id="glow-pqc" x="-40%" y="-40%" width="180%" height="180%">
      <feGaussianBlur stdDeviation="3" result="blur" />
      <feFlood flood-color="#EC4899" flood-opacity="0.3" result="color" />
      <feComposite in="color" in2="blur" operator="in" result="shadow" />
      <feMerge>
        <feMergeNode in="shadow" />
        <feMergeNode in="SourceGraphic" />
      </feMerge>
    </filter>

    <!-- Card Gradient -->
    <linearGradient id="card-bg" x1="0%" y1="0%" x2="0%" y2="100%">
      <stop offset="0%" stop-color="#141226" />
      <stop offset="100%" stop-color="#0c0b16" />
    </linearGradient>

    <!-- Section header gradients -->
    <linearGradient id="grad-lang" x1="0%" y1="0%" x2="100%" y2="0%">
      <stop offset="0%" stop-color="#00F2FE" />
      <stop offset="100%" stop-color="#4FACFE" />
    </linearGradient>
    <linearGradient id="grad-back" x1="0%" y1="0%" x2="100%" y2="0%">
      <stop offset="0%" stop-color="#FFB7C5" />
      <stop offset="100%" stop-color="#FF6B8B" />
    </linearGradient>
    <linearGradient id="grad-pqc" x1="0%" y1="0%" x2="100%" y2="0%">
      <stop offset="0%" stop-color="#EC4899" />
      <stop offset="100%" stop-color="#8B5CF6" />
    </linearGradient>
    <linearGradient id="grad-front" x1="0%" y1="0%" x2="100%" y2="0%">
      <stop offset="0%" stop-color="#A855F7" />
      <stop offset="100%" stop-color="#6366F1" />
    </linearGradient>
    <linearGradient id="grad-tool" x1="0%" y1="0%" x2="100%" y2="0%">
      <stop offset="0%" stop-color="#10B981" />
      <stop offset="100%" stop-color="#059669" />
    </linearGradient>
  </defs>

  <style>
    .main-border {
      fill: #0c0b16;
      stroke: #221e3f;
      stroke-width: 1.5;
      rx: 16;
      transition: all 0.3s ease;
    }
    .main-border:hover {
      stroke: #33CCFF;
    }
    .row-card {
      fill: url(#card-bg);
      stroke: #1e1b3a;
      stroke-width: 1;
      rx: 10;
      transition: all 0.3s ease;
    }
    .row-card:hover {
      stroke: #33ccff;
      filter: drop-shadow(0 0 6px rgba(51, 204, 255, 0.15));
    }
    .title-text {
      font-family: -apple-system, BlinkMacSystemFont, "Segoe UI", Roboto, Helvetica, Arial, sans-serif;
      font-size: 15px;
      font-weight: 800;
      fill: #ffffff;
      letter-spacing: 2px;
    }
    .category-label {
      font-family: -apple-system, BlinkMacSystemFont, "Segoe UI", Roboto, Helvetica, Arial, sans-serif;
      font-size: 10px;
      font-weight: 800;
      letter-spacing: 1.5px;
    }
    .logo-wrapper {
      transition: transform 0.2s cubic-bezier(0.4, 0, 0.2, 1), filter 0.2s ease;
      transform-origin: 20px 20px;
      cursor: pointer;
    }
    .logo-wrapper:hover {
      transform: scale(1.18) translateY(-2px);
      filter: drop-shadow(0 3px 8px rgba(51, 204, 255, 0.35));
    }
    .dot-accent {
      transition: all 0.3s ease;
    }
  </style>

  <!-- Main Card Background -->
  <rect width="848" height="468" x="1" y="1" class="main-border" />

  <!-- Title -->
  <text x="425" y="32" text-anchor="middle" class="title-text">TECH ARSENAL</text>
  <!-- Title underline accent -->
  <line x1="355" y1="40" x2="495" y2="40" stroke="url(#grad-lang)" stroke-width="2" stroke-linecap="round" opacity="0.6">
    <animate attributeName="opacity" values="0.4;0.8;0.4" dur="3s" repeatCount="indefinite" />
  </line>

  <!-- ===================== ROW 1: LANGUAGES & CORE ===================== -->
  <g transform="translate(0, 0)">
    <rect x="20" y="55" width="810" height="68" class="row-card" />
    <rect x="20" y="55" width="4" height="68" rx="2" fill="url(#grad-lang)" opacity="0.8" />
    <!-- Accent dot -->
    <circle cx="38" cy="89" r="4" fill="#00F2FE" opacity="0.8" class="dot-accent" filter="url(#glow-cyan)">
      <animate attributeName="opacity" values="0.5;1;0.5" dur="2.5s" repeatCount="indefinite" />
    </circle>
    <text x="50" y="93" class="category-label" fill="url(#grad-lang)">LANGUAGES &amp; RUNTIMES</text>
    <line x1="240" y1="65" x2="240" y2="113" stroke="#1e1b3a" stroke-width="1" opacity="0.8" />

    <!-- Python -->
    <g transform="translate(265, 69)">
      <g class="logo-wrapper">
        <title>Python</title>
        <path d="M20.1,2C15,2,11.2,5.6,11.2,10.7v3.2h9.1v1.4h-6.4c-4.9,0-8.5,3.6-8.5,8.6c0,5.1,3.7,8.6,8.8,8.6h3.2v-4.4c0-4.5,3.6-8.1,8.1-8.1h6.6v-3.2c0-5.1-3.7-8.7-8.8-8.7h-3.2v2.6h-4.5c-1.3,0-2.3-1-2.3-2.3c0-1.3,1.3-3.2,6.8-3.2c5.5,0,6.9,1.3,6.9,3.2v2.3h4.5c4.3,0,7.9,3.6,7.9,7.9v3.1c0,1.3-1,2.3-2.3,2.3h-2.5v-3.7c0-4.5-3.6-8.1-8.1-8.1h-6.2v1.7h-0.2L20.1,2z" fill="#38BDF8"/>
        <path d="M20.1,2C15,2,11.2,5.6,11.2,10.7v3.2h9.1v1.4h-6.4c-4.9,0-8.5,3.6-8.5,8.6c0,5.1,3.7,8.6,8.8,8.6h3.2v-4.4c0-4.5,3.6-8.1,8.1-8.1h6.6v-3.2c0-5.1-3.7-8.7-8.8-8.7h-3.2v2.6h-4.5c-1.3,0-2.3-1-2.3-2.3c0-1.3,1.3-3.2,6.8-3.2c5.5,0,6.9,1.3,6.9,3.2v2.3h4.5c4.3,0,7.9,3.6,7.9,7.9v3.1c0,1.3-1,2.3-2.3,2.3h-2.5v-3.7c0-4.5-3.6-8.1-8.1-8.1h-6.2v1.7h-0.2L20.1,2z" fill="#FDE047" transform="rotate(180, 20, 20)"/>
        <circle cx="15.5" cy="6.5" r="1" fill="#0C0B16" />
        <circle cx="24.5" cy="33.5" r="1" fill="#0C0B16" transform="rotate(180, 20, 20)" />
      </g>
    </g>

    <!-- JavaScript -->
    <g transform="translate(330, 69)">
      <g class="logo-wrapper">
        <title>JavaScript</title>
        <rect width="40" height="40" rx="6" fill="#F7DF1E"/>
        <text x="34" y="34" font-family="-apple-system, sans-serif" font-weight="900" font-size="12" fill="#000000" text-anchor="end">JS</text>
      </g>
    </g>

    <!-- HTML5 -->
    <g transform="translate(395, 69)">
      <g class="logo-wrapper">
        <title>HTML5</title>
        <path d="M4,2 l3.2,32.4 12.8,3.6 12.8,-3.6 3.2,-32.4 H4 z" fill="#E34F26"/>
        <path d="M20,4.6 V35 l9.6,-2.7 2.4,-24.3 H20 z" fill="#EF652A"/>
        <path d="M20,12.9 H13.3 l0.5,5.6 H20 v5.6 l-5.7,-1.5 -0.4,-4 h-5.6 l0.8,9.2 10.9,3 V12.9 z" fill="#EAEAEA"/>
        <path d="M20,12.9 h6.8 l-0.6,7.2 H20 v5.6 l5.7,-1.5 0.6,-6.4 H20 V12.9 z" fill="#FFFFFF"/>
      </g>
    </g>

    <!-- CSS3 -->
    <g transform="translate(460, 69)">
      <g class="logo-wrapper">
        <title>CSS3</title>
        <path d="M4,2 l3.2,32.4 12.8,3.6 12.8,-3.6 3.2,-32.4 H4 z" fill="#1572B6"/>
        <path d="M20,4.6 V35 l9.6,-2.7 2.4,-24.3 H20 z" fill="#33A9DC"/>
        <path d="M20,12.9 H13.3 l0.5,5.6 H20 V12.9 z M20,24.1 l-5.7,-1.5 -0.4,-4 h-5.6 l0.8,9.2 10.9,3 V24.1 z" fill="#EAEAEA"/>
        <path d="M20,12.9 h6.8 l-0.6,7.2 H20 v5.6 l5.7,-1.5 0.6,-6.4 H20 V12.9 z M20,18.5 h6.8 l-0.6,5.6 -6.2,1.7 V18.5 z" fill="#FFFFFF"/>
      </g>
    </g>

    <!-- C -->
    <g transform="translate(525, 69)">
      <g class="logo-wrapper">
        <title>C Language</title>
        <rect width="40" height="40" rx="8" fill="#5c6bc0" />
        <text x="20" y="27" font-family="-apple-system, sans-serif" font-weight="900" font-size="18" fill="#ffffff" text-anchor="middle">C</text>
      </g>
    </g>
  </g>

  <!-- ===================== ROW 2: BACKEND & DATABASES ===================== -->
  <g transform="translate(0, 0)">
    <rect x="20" y="138" width="810" height="68" class="row-card" />
    <rect x="20" y="138" width="4" height="68" rx="2" fill="url(#grad-back)" opacity="0.8" />
    <!-- Accent dot -->
    <circle cx="38" cy="172" r="4" fill="#FFB7C5" opacity="0.8" class="dot-accent" filter="url(#glow-pink)">
      <animate attributeName="opacity" values="0.5;1;0.5" dur="3.2s" repeatCount="indefinite" />
    </circle>
    <text x="50" y="176" class="category-label" fill="url(#grad-back)">BACKEND &amp; DATABASES</text>
    <line x1="240" y1="148" x2="240" y2="196" stroke="#1e1b3a" stroke-width="1" opacity="0.8" />

    <!-- FastAPI -->
    <g transform="translate(265, 152)">
      <g class="logo-wrapper">
        <title>FastAPI</title>
        <rect width="40" height="40" rx="8" fill="#059669" />
        <path d="M21,6 L29,18 L22,18 L24,34 L12,20 L19,20 Z" fill="#ffffff" />
      </g>
    </g>

    <!-- Flask -->
    <g transform="translate(330, 152)">
      <g class="logo-wrapper">
        <title>Flask</title>
        <rect width="40" height="40" rx="8" fill="#1e293b" stroke="#00c853" stroke-width="1" />
        <path d="M15,8 h10 v3 H22 v6.5 L29,29 C30,31 28.5,33 26,33 H14 C11.5,33 10,31 11,29 L18,17.5 V11 H15 V8 Z" fill="none" stroke="#00c853" stroke-width="2.5" stroke-linejoin="round" />
      </g>
    </g>

    <!-- PostgreSQL -->
    <g transform="translate(395, 152)">
      <g class="logo-wrapper">
        <title>PostgreSQL</title>
        <rect width="40" height="40" rx="8" fill="#336791" />
        <path d="M20,7c-6.6,0-12,5.4-12,12c0,4.2,2.2,7.8,5.5,10l-1.5,4h5.5l1-3h3v3h5v-3h3l1,3h5.5l-1.5-4c3.3-2.2,5.5-5.8,5.5-10C32,12.4,26.6,7,20,7zm-3,8c.8,0,1.5.7,1.5,1.5S17.8,18,17,18s-1.5-.7-1.5-1.5S16.2,15,17,15zm6,0c.8,0,1.5.7,1.5,1.5S23.8,18,23,18s-1.5-.7-1.5-1.5S22.2,15,23,15z" fill="#ffffff" />
      </g>
    </g>

    <!-- SQLAlchemy -->
    <g transform="translate(460, 152)">
      <g class="logo-wrapper">
        <title>SQLAlchemy</title>
        <rect width="40" height="40" rx="8" fill="#D71A21" />
        <text x="20" y="26" font-family="-apple-system, sans-serif" font-weight="900" font-size="16" fill="#ffffff" text-anchor="middle">SA</text>
      </g>
    </g>

    <!-- Alembic -->
    <g transform="translate(525, 152)">
      <g class="logo-wrapper">
        <title>Alembic</title>
        <rect width="40" height="40" rx="8" fill="#1A1A1A" stroke="#444444" stroke-width="1" />
        <path d="M12,28 L28,28 L20,16 Z" fill="#D7191C" opacity="0.8" />
        <path d="M20,16 L20,10 L30,10 L32,14" fill="none" stroke="#FFFFFF" stroke-width="2" stroke-linecap="round" />
        <circle cx="32" cy="18" r="2" fill="#D7191C" />
      </g>
    </g>

    <!-- Uvicorn -->
    <g transform="translate(590, 152)">
      <g class="logo-wrapper">
        <title>Uvicorn</title>
        <rect width="40" height="40" rx="8" fill="#4B0082" />
        <path d="M20,6 L26,30 L14,30 Z" fill="#FFFFFF" />
        <path d="M19,10 L22,12" stroke="#4B0082" stroke-width="1.5" />
        <path d="M17,16 L23,19" stroke="#4B0082" stroke-width="1.5" />
        <path d="M16,22 L24,25" stroke="#4B0082" stroke-width="1.5" />
      </g>
    </g>
  </g>

  <!-- ===================== ROW 3: PQC & HSM SECURITY ===================== -->
  <g transform="translate(0, 0)">
    <rect x="20" y="221" width="810" height="68" class="row-card" />
    <rect x="20" y="221" width="4" height="68" rx="2" fill="url(#grad-pqc)" opacity="0.8" />
    <!-- Accent dot -->
    <circle cx="38" cy="255" r="4" fill="#EC4899" opacity="0.8" class="dot-accent" filter="url(#glow-pqc)">
      <animate attributeName="opacity" values="0.5;1;0.5" dur="2.8s" repeatCount="indefinite" />
    </circle>
    <text x="50" y="259" class="category-label" fill="url(#grad-pqc)">PQC &amp; HSM SECURITY</text>
    <line x1="240" y1="231" x2="240" y2="279" stroke="#1e1b3a" stroke-width="1" opacity="0.8" />

    <!-- liboqs -->
    <g transform="translate(265, 235)">
      <g class="logo-wrapper">
        <title>liboqs (Open Quantum Safe)</title>
        <rect width="40" height="40" rx="8" fill="#0c1020" stroke="#00f2fe" stroke-width="1" />
        <path d="M14,18 V13 C14,9.7,16.7,7,20,7 C23.3,7,26,9.7,26,13 V18" fill="none" stroke="#00f2fe" stroke-width="2" />
        <rect x="11" y="18" width="18" height="12" rx="2" fill="#00f2fe" />
        <circle cx="20" cy="23" r="1.5" fill="#0c1020" />
        <path d="M20,24 V27" stroke="#0c1020" stroke-width="1.5" stroke-linecap="round" />
        <ellipse cx="20" cy="20" rx="16" ry="5" fill="none" stroke="#a855f7" stroke-width="1" transform="rotate(30, 20, 20)" opacity="0.7" />
        <ellipse cx="20" cy="20" rx="16" ry="5" fill="none" stroke="#a855f7" stroke-width="1" transform="rotate(-30, 20, 20)" opacity="0.7" />
      </g>
    </g>

    <!-- Utimaco HSM -->
    <g transform="translate(330, 235)">
      <g class="logo-wrapper">
        <title>Utimaco HSM (PKCS#11)</title>
        <rect width="40" height="40" rx="8" fill="#1e293b" stroke="#64748b" stroke-width="1" />
        <rect x="6" y="15" width="28" height="10" rx="1" fill="#334155" />
        <circle cx="10" cy="20" r="1.5" fill="#10b981" />
        <circle cx="14" cy="20" r="1.5" fill="#10b981" />
        <circle cx="26" cy="20" r="3" fill="none" stroke="#e2e8f0" stroke-width="1.5" />
        <path d="M28,20 H32 V23" stroke="#e2e8f0" stroke-width="1.5" stroke-linecap="round" />
      </g>
    </g>

    <!-- AES-256-GCM -->
    <g transform="translate(395, 235)">
      <g class="logo-wrapper">
        <title>AES-256-GCM</title>
        <rect width="40" height="40" rx="8" fill="#0f172a" stroke="#f59e0b" stroke-width="1" />
        <path d="M12,8 L20,5 L28,8 V18 C28,24,20,28,20,28 C20,28,12,24,12,18 V8 Z" fill="none" stroke="#f59e0b" stroke-width="2" />
        <rect x="16" y="15" width="8" height="6" rx="1" fill="#f59e0b" />
        <path d="M18,15 V13 C18,11.5,19,10.5,20,10.5 C21,10.5,22,11.5,22,13 V15" fill="none" stroke="#f59e0b" stroke-width="1.2" />
      </g>
    </g>

    <!-- X25519 & Ed25519 -->
    <g transform="translate(460, 235)">
      <g class="logo-wrapper">
        <title>X25519 &amp; Ed25519 Cryptography</title>
        <rect width="40" height="40" rx="8" fill="#0f172a" stroke="#ec4899" stroke-width="1" />
        <circle cx="14" cy="20" r="3" fill="#ec4899" />
        <circle cx="26" cy="20" r="3" fill="#ec4899" />
        <path d="M14,20 C18,15,22,25,26,20" fill="none" stroke="#ec4899" stroke-width="2" stroke-linecap="round" />
        <path d="M12,20 H8" stroke="#ec4899" stroke-width="1.5" />
        <path d="M28,20 H32" stroke="#ec4899" stroke-width="1.5" />
      </g>
    </g>
  </g>

  <!-- ===================== ROW 4: FRONTEND & MOBILE ===================== -->
  <g transform="translate(0, 0)">
    <rect x="20" y="304" width="810" height="68" class="row-card" />
    <rect x="20" y="304" width="4" height="68" rx="2" fill="url(#grad-front)" opacity="0.8" />
    <!-- Accent dot -->
    <circle cx="38" cy="338" r="4" fill="#A855F7" opacity="0.8" class="dot-accent" filter="url(#glow-purple)">
      <animate attributeName="opacity" values="0.5;1;0.5" dur="2.8s" repeatCount="indefinite" />
    </circle>
    <text x="50" y="342" class="category-label" fill="url(#grad-front)">FRONTEND &amp; MOBILE</text>
    <line x1="240" y1="314" x2="240" y2="362" stroke="#1e1b3a" stroke-width="1" opacity="0.8" />

    <!-- React Native -->
    <g transform="translate(265, 318)">
      <g class="logo-wrapper">
        <title>React Native</title>
        <rect width="40" height="40" rx="8" fill="#20232A" />
        <circle cx="20" cy="20" r="2.5" fill="#61DAFB" />
        <ellipse cx="20" cy="20" rx="15" ry="5.5" fill="none" stroke="#61DAFB" stroke-width="1.2" />
        <ellipse cx="20" cy="20" rx="15" ry="5.5" fill="none" stroke="#61DAFB" stroke-width="1.2" transform="rotate(60, 20, 20)" />
        <ellipse cx="20" cy="20" rx="15" ry="5.5" fill="none" stroke="#61DAFB" stroke-width="1.2" transform="rotate(120, 20, 20)" />
      </g>
    </g>

    <!-- Expo -->
    <g transform="translate(330, 318)">
      <g class="logo-wrapper">
        <title>Expo</title>
        <rect width="40" height="40" rx="8" fill="#000000" stroke="#333333" stroke-width="1" />
        <path d="M20,9 L32,30 H26.5 L20,19.5 L13.5,30 H8 Z" fill="#FFFFFF" />
      </g>
    </g>

    <!-- Vite -->
    <g transform="translate(395, 318)">
      <g class="logo-wrapper">
        <title>Vite</title>
        <rect width="40" height="40" rx="8" fill="#1b1b1f" />
        <path d="M7,11 L20,32 L33,11" fill="none" stroke="#bd34fe" stroke-width="4.5" stroke-linecap="round" stroke-linejoin="round" />
        <path d="M22,7 L14,20 H20 L18,33 L29,16 H22 Z" fill="#ffd859" />
      </g>
    </g>

    <!-- Tailwind CSS -->
    <g transform="translate(460, 318)">
      <g class="logo-wrapper">
        <title>Tailwind CSS</title>
        <rect width="40" height="40" rx="8" fill="#0B111E" />
        <path d="M20,11.5 C15.5,11.5,12.8,13.8,12,18.3 C13.8,15.8,15.6,15,17.6,15.8 C18.7,16.2,19.6,17.2,20.6,18.2 C22.2,19.9,24.2,21.9,28.8,21.9 C33.3,21.9,36,19.6,36.8,15.1 C35,17.6,33.2,18.4,31.2,17.6 C30.1,17.2,29.2,16.2,28.2,15.2 C26.6,13.5,24.6,11.5,20,11.5 Z M12,21.9 C7.5,21.9,4.8,24.2,4,28.7 C5.8,26.2,7.6,25.4,9.6,26.2 C10.7,26.6,11.6,27.6,12.6,28.6 C14.2,30.3,16.2,32.3,20.8,32.3 C25.3,32.3,28,30.0,28.8,25.5 C27,28.0,25.2,28.8,23.2,28.0 C22.1,27.6,21.2,26.6,20.2,25.6 C18.6,23.9,16.6,21.9,12,21.9 Z" fill="#38bdf8" />
      </g>
    </g>

    <!-- Axios -->
    <g transform="translate(525, 318)">
      <g class="logo-wrapper">
        <title>Axios</title>
        <rect width="40" height="40" rx="8" fill="#5a29e4" />
        <path d="M12,20 L20,12 L28,20 L20,28 Z" fill="#ffffff" opacity="0.15" />
        <path d="M14,18 L20,12 L26,18" fill="none" stroke="#ffffff" stroke-width="3" stroke-linecap="round" stroke-linejoin="round" />
        <path d="M26,22 L20,28 L14,22" fill="none" stroke="#ffffff" stroke-width="3" stroke-linecap="round" stroke-linejoin="round" />
      </g>
    </g>
  </g>

  <!-- ===================== ROW 5: DEVELOPMENT & TOOLS ===================== -->
  <g transform="translate(0, 0)">
    <rect x="20" y="387" width="810" height="68" class="row-card" />
    <rect x="20" y="387" width="4" height="68" rx="2" fill="url(#grad-tool)" opacity="0.8" />
    <!-- Accent dot -->
    <circle cx="38" cy="421" r="4" fill="#10B981" opacity="0.8" class="dot-accent" filter="url(#glow-green)">
      <animate attributeName="opacity" values="0.5;1;0.5" dur="2.6s" repeatCount="indefinite" />
    </circle>
    <text x="50" y="425" class="category-label" fill="url(#grad-tool)">DEVELOPMENT &amp; TOOLS</text>
    <line x1="240" y1="397" x2="240" y2="445" stroke="#1e1b3a" stroke-width="1" opacity="0.8" />

    <!-- Git -->
    <g transform="translate(265, 401)">
      <g class="logo-wrapper">
        <title>Git</title>
        <rect width="40" height="40" rx="8" fill="#F05032" />
        <path d="M20,8 L32,20 L20,32 L8,20 Z" fill="none" stroke="#FFFFFF" stroke-width="2.5" stroke-linejoin="round" />
        <line x1="20" y1="14" x2="20" y2="26" stroke="#FFFFFF" stroke-width="2.5" />
        <path d="M20,20 C20,20,25,20,25,25" fill="none" stroke="#FFFFFF" stroke-width="2.5" />
        <circle cx="20" cy="14" r="2.5" fill="#F05032" stroke="#FFFFFF" stroke-width="2" />
        <circle cx="20" cy="26" r="2.5" fill="#F05032" stroke="#FFFFFF" stroke-width="2" />
        <circle cx="25" cy="25" r="2.5" fill="#F05032" stroke="#FFFFFF" stroke-width="2" />
      </g>
    </g>

    <!-- GitHub -->
    <g transform="translate(330, 401)">
      <g class="logo-wrapper">
        <title>GitHub</title>
        <rect width="40" height="40" rx="8" fill="#181717" stroke="#333333" stroke-width="1" />
        <path d="M20,6 C12.3,6,6,12.3,6,20 C6,26.2,10,31.4,15.6,33.3 C16.3,33.4,16.6,33,16.6,32.6 C16.6,32.3,16.6,31.2,16.6,30 C12.7,30.8,11.9,28.3,11.9,28.3 C11.3,26.7,10.4,26.3,10.4,26.3 C9.1,25.4,10.5,25.4,10.5,25.4 C11.9,25.5,12.7,26.9,12.7,26.9 C14,29.1,16.1,28.5,16.9,28.1 C17,27.1,17.4,26.5,17.9,26 C14.8,25.7,11.5,24.5,11.5,19.1 C11.5,17.6,12,16.3,12.9,15.3 C12.8,15,12.3,13.6,13,11.8 C13,11.8,14.1,11.4,16.6,13.2 C17.7,12.9,18.9,12.7,20,12.7 C21.1,12.7,22.3,12.9,23.4,13.2 C25.9,11.4,27,11.8,27,11.8 C27.7,13.6,27.2,15,27.1,15.3 C28,16.3,28.5,17.6,28.5,19.1 C28.5,24.5,25.2,25.7,22.1,26 C22.6,26.5,23,27.4,23,28.7 C23,30.6,23,32.1,23,32.6 C23,33,23.3,33.5,24,33.3 C29.6,31.4,33.6,26.2,33.6,20 C33.6,12.3,27.3,6,20,6 Z" fill="#FFFFFF" />
      </g>
    </g>

    <!-- Postman -->
    <g transform="translate(395, 401)">
      <g class="logo-wrapper">
        <title>Postman</title>
        <rect width="40" height="40" rx="8" fill="#FF6C37" />
        <path d="M28.4,18.7c0.2-1.3,0-2.6-0.6-3.8c-1.1-2.2-3.6-3.3-5.9-2.7c-0.8-2.6-3.3-4.3-6.1-4c-3.1,0.3-5.3,3-5,6.1c0.1,0.9,0.5,1.7,1,2.4c-1.3,1.1-2,2.8-1.7,4.6c0.4,2.5,2.4,4.4,4.9,4.7c0.6,0.1,1.1,0,1.7-0.1c1.3,1.9,3.5,3,5.8,2.7c3.1-0.3,5.3-3,5-6.1c-0.1-0.9-0.5-1.7-1-2.4C27.8,19.8,28.3,19.3,28.4,18.7z M18.5,28.2c-1.6,0.2-3.1-0.6-3.9-1.9c-0.3-0.5-0.5-1.1-0.5-1.7c0-0.4,0.1-0.8,0.3-1.1l5.4-9.3l1.7,1l-5.4,9.3c-0.3,0.5-0.1,1.2,0.4,1.5c0.5,0.3,1.2,0.1,1.5-0.4l5.4-9.3l1.7,1l-5.4,9.3C19.7,27.7,19.1,28.1,18.5,28.2z" fill="#FFFFFF" />
      </g>
    </g>

    <!-- Pytest -->
    <g transform="translate(460, 401)">
      <g class="logo-wrapper">
        <title>Pytest</title>
        <rect width="40" height="40" rx="8" fill="#0C0B16" stroke="#33CCFF" stroke-width="1" />
        <path d="M12,20 L18,26 L30,12" fill="none" stroke="#38BDF8" stroke-width="4.5" stroke-linecap="round" stroke-linejoin="round" opacity="0.9" />
        <path d="M10,22 L16,28 L28,14" fill="none" stroke="#FDE047" stroke-width="2.5" stroke-linecap="round" stroke-linejoin="round" />
      </g>
    </g>
  </g>

  <!-- =================== FLOATING PARTICLES OVERLAY =================== -->
  <g id="readme-theme-overlay" opacity="0.8">
    <!-- Cherry Blossom Petal 1 -->
    <path d="M 0,0 C -3,-5 -8,-3 -7,2 C -5,7 0,10 0,10 C 0,10 5,7 7,2 C 8,-3 3,-5 0,0 Z" fill="#FFB7C5" opacity="0.2">
      <animateTransform attributeName="transform" type="translate" values="-20,40; 870,300" dur="18s" repeatCount="indefinite" />
      <animateTransform attributeName="transform" type="rotate" values="0; 360" dur="12s" repeatCount="indefinite" additive="sum" />
    </path>
    <!-- Cherry Blossom Petal 2 -->
    <path d="M 0,0 C -3,-5 -8,-3 -7,2 C -5,7 0,10 0,10 C 0,10 5,7 7,2 C 8,-3 3,-5 0,0 Z" fill="#FFB7C5" opacity="0.18">
      <animateTransform attributeName="transform" type="translate" values="120,-20; 880,210" dur="22s" repeatCount="indefinite" />
      <animateTransform attributeName="transform" type="rotate" values="45; 405" dur="15s" repeatCount="indefinite" additive="sum" />
    </path>
    <!-- Cherry Blossom Petal 3 -->
    <path d="M 0,0 C -3,-5 -8,-3 -7,2 C -5,7 0,10 0,10 C 0,10 5,7 7,2 C 8,-3 3,-5 0,0 Z" fill="#FF8DA1" opacity="0.15">
      <animateTransform attributeName="transform" type="translate" values="-50,160; 830,420" dur="20s" repeatCount="indefinite" />
      <animateTransform attributeName="transform" type="rotate" values="90; 450" dur="18s" repeatCount="indefinite" additive="sum" />
    </path>
    <!-- Cherry Blossom Petal 4 -->
    <path d="M 0,0 C -3,-5 -8,-3 -7,2 C -5,7 0,10 0,10 C 0,10 5,7 7,2 C 8,-3 3,-5 0,0 Z" fill="#FFB7C5" opacity="0.22">
      <animateTransform attributeName="transform" type="translate" values="280,-30; 780,420" dur="25s" repeatCount="indefinite" />
      <animateTransform attributeName="transform" type="rotate" values="10; 730" dur="24s" repeatCount="indefinite" additive="sum" />
    </path>

    <!-- Coding Particles -->
    <text x="0" y="0" fill="#00F2FE" font-family="monospace" font-size="11" font-weight="bold" opacity="0.14">
      &lt;/&gt;
      <animateTransform attributeName="transform" type="translate" values="40,380; 810,30" dur="26s" repeatCount="indefinite" />
      <animateTransform attributeName="transform" type="rotate" values="0; -360" dur="16s" repeatCount="indefinite" additive="sum" />
    </text>
    <text x="0" y="0" fill="#8B5CF6" font-family="monospace" font-size="13" font-weight="bold" opacity="0.12">
      {{
      <animateTransform attributeName="transform" type="translate" values="180,430; 790,60" dur="28s" repeatCount="indefinite" />
      <animateTransform attributeName="transform" type="rotate" values="0; 360" dur="20s" repeatCount="indefinite" additive="sum" />
    </text>
    <text x="0" y="0" fill="#3B82F6" font-family="monospace" font-size="12" font-weight="bold" opacity="0.15">
      ( )
      <animateTransform attributeName="transform" type="translate" values="10,220; 840,10" dur="23s" repeatCount="indefinite" />
      <animateTransform attributeName="transform" type="rotate" values="30; 390" dur="14s" repeatCount="indefinite" additive="sum" />
    </text>

    <!-- Sparkle Dots -->
    <circle cx="0" cy="0" r="1.5" fill="#00F2FE" opacity="0.25">
      <animateTransform attributeName="transform" type="translate" values="-30,80; 860,350" dur="19s" repeatCount="indefinite" />
    </circle>
    <circle cx="0" cy="0" r="1.2" fill="#8B5CF6" opacity="0.3">
      <animateTransform attributeName="transform" type="translate" values="140,-10; 810,380" dur="24s" repeatCount="indefinite" />
    </circle>
  </g>
</svg>
